# xmcd CD database file
#
# Track frame offsets:
#	187
#	11407
#	35894
#	49094
#	62819
#	72382
#	82494
#	92519
#	110669
#	124919
#	138794
#	157544
#	166844
#	179144
#	192494
#	205994
#	216644
#	229432
#	239294
#	249832
#	259527
#	272457
#	290382
#	294494
#	303957
#	317069
#
# Disc length: 4461 seconds
#
# Revision: 0
# Processed by: cddbd v1.5PL3 Copyright (c) Steve Scherf et al.
# Submitted via: CDex 1.50Beta6
#
DISCID=86116b1a
DTITLE=Miles Davis - Ascenseur Pour L'echafaud
DYEAR=1900
DGENRE=Jazz
TTITLE0=Nuit Sur Les Champs-Elysees (Take 1)
TTITLE1=Nuit Sur Les Champs-Elysees (Take 2)
TTITLE2=Nuit Sur Les Champs-Elysees (Take 3) (Generique)
TTITLE3=Nuit Sur Les Champs-Elysees (Take 4) Florence Sur Les Champs-Elysees
TTITLE4=Assassinat (Take 1) Visit De Vigile
TTITLE5=Assassinat (Take 2) Julien Dans l'Ascenseur
TTITLE6=Assassinat (Take 3) L'Assassinat De Carala
TTITLE7=Motel (Diner Au Motel)
TTITLE8=Final (Take 1)
TTITLE9=Final (Take 2)
TTITLE10=Final (Take 3) Chez Le Photographe Du Motel
TTITLE11=Ascenseur (Evasion De Julien)
TTITLE12=Le Petit Bal (Take 1)
TTITLE13=Le Petit Bal (Take 2)- Au Bar Du Petit Bac
TTITLE14=Sequence Voiture (Take 1)
TTITLE15=Sequence Voiture (Take 2) (Sur l'Autoroute)
TTITLE16=Generique
TTITLE17=L'Assassinat De Carala
TTITLE18=Sur L'Autoroute
TTITLE19=Julien Dans l'Ascenseur
TTITLE20=Florence Sur Les Champs- Lysees
TTITLE21=Diner Au Motel
TTITLE22=Evasion De Julien
TTITLE23=Visit Du Vigile
TTITLE24=Au Bar Du Petit Bac
TTITLE25=Chez Le Photographe Du Motel
EXTD=
EXTT0=
EXTT1=
EXTT2=
EXTT3=
EXTT4=
EXTT5=
EXTT6=
EXTT7=
EXTT8=
EXTT9=
EXTT10=
EXTT11=
EXTT12=
EXTT13=
EXTT14=
EXTT15=
EXTT16=
EXTT17=
EXTT18=
EXTT19=
EXTT20=
EXTT21=
EXTT22=
EXTT23=
EXTT24=
EXTT25=
PLAYORDER=
